<svg width="151" height="12" viewBox="0 0 151 12" fill="none" xmlns="http://www.w3.org/2000/svg">
<path d="M7.35547 9.29102H2.88477V6.80273H7.10254V5.2168H2.88477V2.83789H7.35547V1.13574H0.820312V11H7.35547V9.29102Z" fill="white"/>
<path d="M19.991 11V1.13574H17.5984L14.7957 8.12891H14.741L11.9383 1.13574H9.5457V11H11.3846V4.3418H11.4393L14.1189 10.9043H15.4178L18.0975 4.3418H18.1521V11H19.991Z" fill="white"/>
<path d="M22.3316 1.13574V11H24.3961V7.88965H26.2418C28.3199 7.88965 29.7623 6.53613 29.7623 4.5127C29.7623 2.48242 28.3678 1.13574 26.3443 1.13574H22.3316ZM24.3961 2.76953H25.7975C26.9801 2.76953 27.6637 3.39844 27.6637 4.51953C27.6637 5.64746 26.9732 6.27637 25.7906 6.27637H24.3961V2.76953Z" fill="white"/>
<path d="M38.0639 9.29102H33.7504V1.13574H31.6859V11H38.0639V9.29102Z" fill="white"/>
<path d="M44.0275 0.964844C41.1018 0.964844 39.2697 2.92676 39.2697 6.07129C39.2697 9.20898 41.1018 11.1709 44.0275 11.1709C46.9465 11.1709 48.7854 9.20898 48.7854 6.07129C48.7854 2.92676 46.9465 0.964844 44.0275 0.964844ZM44.0275 2.6875C45.6408 2.6875 46.673 4 46.673 6.07129C46.673 8.13574 45.6408 9.44141 44.0275 9.44141C42.4074 9.44141 41.3752 8.13574 41.3752 6.07129C41.3752 4 42.4143 2.6875 44.0275 2.6875Z" fill="white"/>
<path d="M55.0977 11V7.31543L58.5361 1.13574H56.3213L54.1064 5.34668H54.0586L51.8506 1.13574H49.6016L53.0332 7.31543V11H55.0977Z" fill="white"/>
<path d="M66.7762 9.29102H62.3055V6.80273H66.5232V5.2168H62.3055V2.83789H66.7762V1.13574H60.241V11H66.7762V9.29102Z" fill="white"/>
<path d="M75.5016 9.29102H71.0309V6.80273H75.2486V5.2168H71.0309V2.83789H75.5016V1.13574H68.9664V11H75.5016V9.29102Z" fill="white"/>
<path d="M80.798 8.19043C80.8596 10.043 82.3703 11.1709 84.7424 11.1709C87.1896 11.1709 88.7414 9.96094 88.7414 8.04688C88.7414 6.54297 87.8801 5.69531 85.9045 5.27148L84.7082 5.01855C83.5734 4.75879 83.0949 4.41699 83.0949 3.80859C83.0949 3.07715 83.7785 2.5918 84.7971 2.5918C85.8293 2.5918 86.5607 3.09766 86.6291 3.93164H88.5637C88.5295 2.14746 87.0871 0.964844 84.7902 0.964844C82.5891 0.964844 81.0168 2.16797 81.0168 3.98633C81.0168 5.42871 81.9123 6.35156 83.7307 6.74121L85.0158 7.02148C86.2053 7.28809 86.6769 7.64355 86.6769 8.28613C86.6769 9.01074 85.925 9.53711 84.8244 9.53711C83.7307 9.53711 82.883 9.00391 82.7873 8.19043H80.798Z" fill="white"/>
<path d="M97.248 9.29102H92.7773V6.80273H96.9951V5.2168H92.7773V2.83789H97.248V1.13574H90.7129V11H97.248V9.29102Z" fill="white"/>
<path d="M101.503 2.74902H103.26C104.285 2.74902 104.928 3.36426 104.928 4.32129C104.928 5.29883 104.319 5.89355 103.28 5.89355H101.503V2.74902ZM101.503 7.39062H103.157L104.996 11H107.334L105.256 7.08301C106.39 6.63867 107.047 5.54492 107.047 4.28027C107.047 2.33203 105.748 1.13574 103.478 1.13574H99.4383V11H101.503V7.39062Z" fill="white"/>
<path d="M114.172 11L117.488 1.13574H115.239L112.983 8.87402H112.935L110.679 1.13574H108.369L111.684 11H114.172Z" fill="white"/>
<path d="M121.264 11V1.13574H119.2V11H121.264Z" fill="white"/>
<path d="M127.966 11.1709C130.386 11.1709 132.074 9.77637 132.307 7.5752H130.297C130.078 8.74414 129.196 9.46191 127.973 9.46191C126.394 9.46191 125.403 8.16309 125.403 6.05762C125.403 3.97949 126.407 2.67383 127.966 2.67383C129.169 2.67383 130.099 3.4668 130.29 4.67676H132.3C132.143 2.46875 130.338 0.964844 127.966 0.964844C125.109 0.964844 123.297 2.88574 123.297 6.06445C123.297 9.25 125.095 11.1709 127.966 11.1709Z" fill="white"/>
<path d="M140.82 9.29102H136.35V6.80273H140.567V5.2168H136.35V2.83789H140.82V1.13574H134.285V11H140.82V9.29102Z" fill="white"/>
<path d="M142.641 8.19043C142.703 10.043 144.214 11.1709 146.586 11.1709C149.033 11.1709 150.585 9.96094 150.585 8.04688C150.585 6.54297 149.723 5.69531 147.748 5.27148L146.552 5.01855C145.417 4.75879 144.938 4.41699 144.938 3.80859C144.938 3.07715 145.622 2.5918 146.64 2.5918C147.673 2.5918 148.404 3.09766 148.472 3.93164H150.407C150.373 2.14746 148.93 0.964844 146.634 0.964844C144.432 0.964844 142.86 2.16797 142.86 3.98633C142.86 5.42871 143.756 6.35156 145.574 6.74121L146.859 7.02148C148.049 7.28809 148.52 7.64355 148.52 8.28613C148.52 9.01074 147.768 9.53711 146.668 9.53711C145.574 9.53711 144.726 9.00391 144.631 8.19043H142.641Z" fill="white"/>
</svg>
