<svg width="50" height="50" viewBox="0 0 50 50" fill="none" xmlns="http://www.w3.org/2000/svg">
<path d="M25 50C38.8071 50 50 38.8071 50 25C50 11.1929 38.8071 0 25 0C11.1929 0 0 11.1929 0 25C0 38.8071 11.1929 50 25 50Z" fill="#BAB3FF"/>
<path fill-rule="evenodd" clip-rule="evenodd" d="M38.4945 19.2469C37.3042 18.302 35.7297 17.8811 34.3171 18.0599C33.1388 18.204 32.0539 18.6807 31.1881 19.4275C31.1725 19.4279 31.1577 19.4237 31.1416 19.4241C31.1512 19.4321 31.1581 19.44 31.1673 19.4497C31.1492 19.466 31.1308 19.4823 31.114 19.4991C31.1092 19.4899 31.1048 19.4811 31.0996 19.4735C31.1544 19.3952 31.2161 19.3236 31.2734 19.2474C32.3103 18.4825 33.2986 17.8635 34.2886 17.4627C35.3106 17.0446 36.2994 16.8993 37.3002 17.0032C38.3014 17.1054 39.3334 17.4555 40.3955 17.9464C41.462 18.4298 42.5313 19.058 43.75 19.6373C43.2324 18.3473 42.4231 17.2344 41.3822 16.3184C40.3434 15.4166 39.0173 14.7129 37.5261 14.5638C36.0374 14.3971 34.4801 14.8905 33.3599 15.8032C33.0026 16.0939 32.6817 16.4193 32.396 16.7682C32.4549 16.5412 32.5214 16.3154 32.5567 16.0796C32.7898 14.6145 32.4565 12.9491 31.6068 11.665C30.7682 10.3665 29.5427 9.48528 28.2895 8.96381C27.0235 8.44653 25.6994 8.2346 24.3689 8.37617C25.4394 9.21638 26.4778 9.89826 27.3949 10.6476C28.3135 11.3877 29.1032 12.1663 29.6673 13.0367C30.2334 13.9058 30.5843 14.883 30.7222 16.0218C30.8359 16.9341 30.8215 17.9188 30.7306 18.9797C30.6989 17.8761 30.3596 16.7741 29.763 15.7873C29.0066 14.5295 27.7034 13.5125 26.2515 13.141C24.8028 12.7502 23.326 12.9404 22.0572 13.4183C20.7804 13.9096 19.657 14.6689 18.75 15.6964C20.0833 15.5829 21.294 15.3747 22.4551 15.2989C23.6109 15.2155 24.6958 15.2532 25.671 15.5133C26.6453 15.7705 27.5271 16.2585 28.3528 17.0157C28.7839 17.4069 29.1933 17.8622 29.594 18.3636C29.1064 18.2229 28.5639 18.2183 28.0728 18.3862C27.4225 18.5956 26.8957 19.0367 26.5135 19.538C26.1333 20.0461 25.8721 20.6174 25.7547 21.2407C26.2435 20.8662 26.6641 20.4842 27.0972 20.1659C27.5247 19.8455 27.9526 19.59 28.3881 19.4463C28.8224 19.3043 29.2759 19.2729 29.7671 19.3609C29.967 19.3948 30.1745 19.458 30.3832 19.5246C29.8536 20.0612 29.3528 20.6308 28.8877 21.2294C27.8043 22.6304 26.8737 24.1642 26.0464 25.7508C25.219 27.3374 24.4923 28.9847 23.8457 30.6652C23.1998 32.3607 22.6165 35.6637 22.1314 37.4999L25.9803 37.4974C26.094 35.8874 26.3508 33.2 26.6521 31.5389C26.9594 29.8593 27.3472 28.1898 27.8384 26.5558C28.3324 24.9211 28.9309 23.3165 29.6993 21.7956C30.0343 21.1364 30.4113 20.4943 30.8223 19.8761C30.9605 19.8668 31.094 19.8597 31.2294 19.8513C31.2598 19.8647 31.2891 19.8752 31.3211 19.889C31.3159 19.8748 31.3071 19.8618 31.2999 19.8492C31.386 19.8434 31.4742 19.8384 31.5587 19.8338C31.8291 20.1047 32.0771 20.377 32.267 20.6631C32.5539 21.0869 32.7233 21.5272 32.789 22.0009C32.8551 22.4717 32.8191 22.9873 32.7277 23.5292C32.6404 24.0729 32.493 24.6325 32.3796 25.2583C32.8672 24.8767 33.2478 24.385 33.5214 23.8057C33.787 23.2285 33.9409 22.542 33.8395 21.8388C33.749 21.136 33.3716 20.4729 32.8656 20.0574C32.757 19.9682 32.6436 19.8924 32.5258 19.8212C33.144 19.8287 33.7321 19.8769 34.2894 19.9812C35.3719 20.1747 36.2902 20.5843 37.0959 21.2147C37.9019 21.8434 38.6119 22.7008 39.2777 23.6934C39.9512 24.6857 40.5581 25.7998 41.3121 26.9563C41.5056 25.572 41.3642 24.1814 40.9259 22.834C40.484 21.4991 39.6972 20.1806 38.4945 19.2469Z" fill="white"/>
<path fill-rule="evenodd" clip-rule="evenodd" d="M10.6253 30.1811C10.5364 31.0798 10.6454 31.9602 10.9715 32.7865C11.2928 31.9581 11.5245 31.1783 11.8176 30.4636C12.1052 29.7499 12.4411 29.1132 12.8723 28.6027C13.3035 28.0918 13.839 27.7001 14.5125 27.4176C14.8586 27.2689 15.2326 27.1504 15.6317 27.0524C15.5663 27.1142 15.5035 27.1781 15.4463 27.2497C15.1783 27.583 15.0296 28.0496 15.0728 28.4974C15.1086 28.947 15.3078 29.3484 15.5633 29.6651C15.8245 29.9817 16.1424 30.2284 16.5129 30.3908C16.3492 30.0213 16.1728 29.6974 16.0377 29.3744C15.8997 29.0536 15.8018 28.7403 15.7766 28.4395C15.751 28.1365 15.7971 27.8391 15.9215 27.5339C16.0031 27.3286 16.1245 27.1227 16.2604 26.9143C16.3159 26.9045 16.3736 26.8947 16.4304 26.8849C16.4279 26.8939 16.424 26.9033 16.4223 26.9131C16.4411 26.8994 16.4586 26.8888 16.4766 26.8756C16.5651 26.8607 16.6527 26.8449 16.7437 26.8295C17.0992 27.15 17.4364 27.4896 17.7488 27.8463C18.4668 28.6705 19.0864 29.5722 19.6433 30.5075C20.1975 31.4433 20.6907 32.4166 21.1326 33.4082C21.5676 34.3892 22.2223 36.4355 22.5287 37.4135L24.9236 36.4104C24.3437 35.3484 23.4881 33.3955 22.8245 32.4452C22.1625 31.5038 21.4535 30.5957 20.6877 29.7401C19.9223 28.8844 19.0975 28.0768 18.1928 27.3741C17.8052 27.0741 17.3984 26.798 16.9775 26.5462C17.1031 26.4737 17.2283 26.4034 17.3527 26.3523C17.6586 26.2236 17.9569 26.175 18.2586 26.1972C18.5616 26.2202 18.8757 26.3135 19.1988 26.4473C19.5257 26.5781 19.8535 26.7511 20.2245 26.9088C20.0582 26.5415 19.8061 26.2278 19.4864 25.9713C19.1663 25.719 18.7612 25.5256 18.3095 25.4945C17.9672 25.4651 17.6163 25.549 17.3206 25.7097C17.5078 25.3398 17.7074 24.9963 17.93 24.6899C18.3552 24.0972 18.8561 23.6629 19.4501 23.357C20.0445 23.0489 20.742 22.8622 21.5031 22.7395C22.2659 22.6112 23.0804 22.5575 23.9608 22.4263C23.2245 21.9281 22.3869 21.6286 21.4886 21.5173C20.5975 21.4134 19.6133 21.5186 18.7309 21.9784C17.8441 22.4271 17.1467 23.2517 16.839 24.1432C16.595 24.8429 16.5343 25.575 16.6736 26.2619C16.4612 25.6197 16.3091 25.0138 16.2514 24.433C16.1757 23.7081 16.2616 23.0514 16.5027 22.4293C16.7424 21.8062 17.1411 21.2058 17.6296 20.6101C18.1151 20.0084 18.6898 19.4305 19.2612 18.75C18.3792 18.8629 17.5518 19.1936 16.8061 19.7045C16.0698 20.2155 15.4031 20.945 15.048 21.8736C14.683 22.7953 14.7078 23.8747 15.0706 24.7449C15.1279 24.8855 15.2035 25.0151 15.2745 25.1463C15.039 24.9737 14.7839 24.8212 14.5104 24.695C13.6527 24.3 12.5723 24.2301 11.6317 24.5578C10.6873 24.8749 9.93002 25.5098 9.38728 26.2232C8.8454 26.9467 8.48173 27.7564 8.33301 28.6312C9.03942 28.0896 9.64113 27.5403 10.2621 27.0805C10.8792 26.6173 11.4975 26.2453 12.1309 26.031C12.7642 25.8158 13.4262 25.757 14.1488 25.8609C14.848 25.9594 15.5779 26.1929 16.3604 26.5091C16.4086 26.5474 16.4591 26.5828 16.5057 26.6224C16.5035 26.628 16.5018 26.6344 16.5001 26.6403C16.4869 26.6327 16.4728 26.6254 16.4586 26.6182C16.4633 26.6109 16.4663 26.605 16.4715 26.5986C16.4612 26.6007 16.4522 26.6054 16.442 26.6075C15.7728 26.2764 15.001 26.1456 14.2168 26.2342C13.2757 26.3369 12.3163 26.8342 11.6817 27.5979C11.0373 28.3564 10.7185 29.2896 10.6253 30.1811Z" fill="white"/>
</svg>
