<svg width="81" height="9" viewBox="0 0 81 9" fill="none" xmlns="http://www.w3.org/2000/svg">
<path d="M5.07812 6.93555H1.87988V0.954102H0.620117V8H5.07812V6.93555Z" fill="#CCDFFF"/>
<path d="M11.342 6.93555H8.04121V4.92383H11.1613V3.92285H8.04121V2.01855H11.342V0.954102H6.78145V8H11.342V6.93555Z" fill="#CCDFFF"/>
<path d="M16.6439 8L19.0951 0.954102H17.7377L15.9506 6.64746H15.9213L14.1342 0.954102H12.7475L15.1986 8H16.6439Z" fill="#CCDFFF"/>
<path d="M25.2076 6.93555H21.9068V4.92383H25.027V3.92285H21.9068V2.01855H25.2076V0.954102H20.6471V8H25.2076V6.93555Z" fill="#CCDFFF"/>
<path d="M28.3611 1.97461H29.7576C30.5535 1.97461 31.0467 2.43359 31.0467 3.17578C31.0467 3.9375 30.5828 4.38184 29.782 4.38184H28.3611V1.97461ZM28.3611 5.34863H29.7234L31.1102 8H32.5457L31.0076 5.1582C31.8475 4.85547 32.3357 4.0791 32.3357 3.14648C32.3357 1.79883 31.4227 0.954102 29.8992 0.954102H27.1014V8H28.3611V5.34863Z" fill="#CCDFFF"/>
<path d="M33.7461 8H35.1182L36.7979 5.41211H36.8369L38.4971 8H39.9473L37.6377 4.49902V4.46484L39.9863 0.954102H38.5752L36.9248 3.60059H36.8857L35.2549 0.954102H33.7656L36.041 4.43555V4.46973L33.7461 8Z" fill="#CCDFFF"/>
<path d="M50.5902 5.06055V4.30859H47.6605V5.27051H49.3598L49.3549 5.3877C49.3354 6.37402 48.598 7.04785 47.5336 7.04785C46.2641 7.04785 45.473 6.05664 45.473 4.43555C45.473 2.84863 46.2299 1.90625 47.4994 1.90625C48.3637 1.90625 49.018 2.38477 49.2572 3.19531H50.5365C50.307 1.78418 49.0961 0.836914 47.4945 0.836914C45.4584 0.836914 44.184 2.21387 44.184 4.4502C44.184 6.7207 45.4633 8.11719 47.5189 8.11719C49.4477 8.11719 50.5902 6.96973 50.5902 5.06055Z" fill="#CCDFFF"/>
<path d="M53.6803 1.97461H55.0768C55.8727 1.97461 56.3658 2.43359 56.3658 3.17578C56.3658 3.9375 55.902 4.38184 55.1012 4.38184H53.6803V1.97461ZM53.6803 5.34863H55.0426L56.4293 8H57.8648L56.3268 5.1582C57.1666 4.85547 57.6549 4.0791 57.6549 3.14648C57.6549 1.79883 56.7418 0.954102 55.2184 0.954102H52.4205V8H53.6803V5.34863Z" fill="#CCDFFF"/>
<path d="M62.576 0.836914C60.5203 0.836914 59.2313 2.23828 59.2313 4.47949C59.2313 6.7207 60.5203 8.11719 62.576 8.11719C64.6268 8.11719 65.9158 6.7207 65.9158 4.47949C65.9158 2.23828 64.6268 0.836914 62.576 0.836914ZM62.576 1.91113C63.8309 1.91113 64.6316 2.90723 64.6316 4.47949C64.6316 6.04688 63.8309 7.04297 62.576 7.04297C61.3162 7.04297 60.5203 6.04688 60.5203 4.47949C60.5203 2.90723 61.3162 1.91113 62.576 1.91113Z" fill="#CCDFFF"/>
<path d="M68.9814 0.954102H67.7217V5.51465C67.7217 7.05273 68.835 8.11719 70.6172 8.11719C72.4043 8.11719 73.5127 7.05273 73.5127 5.51465V0.954102H72.2578V5.40234C72.2578 6.36426 71.6621 7.01855 70.6172 7.01855C69.5723 7.01855 68.9814 6.36426 68.9814 5.40234V0.954102Z" fill="#CCDFFF"/>
<path d="M75.5627 0.954102V8H76.8225V5.6709H78.2482C79.674 5.6709 80.675 4.71875 80.675 3.3125C80.675 1.90625 79.7033 0.954102 78.302 0.954102H75.5627ZM76.8225 1.98438H77.9699C78.8732 1.98438 79.3957 2.46777 79.3957 3.3125C79.3957 4.16699 78.8684 4.65527 77.965 4.65527H76.8225V1.98438Z" fill="#CCDFFF"/>
</svg>
