<svg width="50" height="50" viewBox="0 0 50 50" fill="none" xmlns="http://www.w3.org/2000/svg">
<path d="M25 50C38.8071 50 50 38.8071 50 25C50 11.1929 38.8071 0 25 0C11.1929 0 0 11.1929 0 25C0 38.8071 11.1929 50 25 50Z" fill="#FFA200"/>
<path opacity="0.9" d="M24.4175 30.0312C24.4731 29.9091 24.4731 29.9091 24.5286 29.787L29.212 19.6985C29.5482 18.9592 29.2818 18.2484 28.5425 17.9122C27.8032 17.576 27.0339 17.971 26.7562 18.5818L22.0758 28.6637C22.0202 28.7859 22.0202 28.7859 21.9646 28.9081C20.2609 28.7307 18.6698 29.6364 17.9447 31.2308C16.9946 33.3202 17.8675 35.649 19.9569 36.5991C22.0462 37.5492 24.375 36.6763 25.3251 34.5869C26.0408 32.9961 25.671 31.1987 24.4175 30.0312Z" fill="white"/>
<path d="M27.5487 29.6787L33.9463 15.6097C34.8964 13.5203 34.0236 11.1916 31.9342 10.2415C29.8447 9.29134 27.4605 10.2864 26.5659 12.2536L20.1712 26.3162C18.1897 26.7497 16.3735 28.1503 15.4789 30.1176C13.9149 33.5571 15.3907 37.4944 18.8302 39.0585C22.2697 40.6225 26.207 39.1467 27.771 35.7072C28.6656 33.7399 28.5181 31.454 27.5487 29.6787ZM19.3857 37.8369C16.6791 36.6061 15.4731 33.3891 16.7039 30.6823C17.5429 28.8373 19.2516 27.6901 21.1155 27.4983L27.7938 12.812C28.4077 11.4619 30.0163 10.859 31.3664 11.4729C32.7165 12.0868 33.3194 13.6954 32.7055 15.0455L26.0302 29.7252C27.1171 31.259 27.3693 33.2979 26.5303 35.1429C25.3124 37.8554 22.0922 39.0676 19.3857 37.8369Z" fill="white"/>
</svg>
